<?xml version="1.0" encoding="UTF-8"?>
<!DOCTYPE svg PUBLIC "-//W3C//DTD SVG 1.1//EN" "http://www.w3.org/Graphics/SVG/1.1/DTD/svg11.dtd">
<!-- Creator: CorelDRAW 2017 -->
<svg xmlns="http://www.w3.org/2000/svg" xml:space="preserve" width="297mm" height="420mm" version="1.1" style="shape-rendering:geometricPrecision; text-rendering:geometricPrecision; image-rendering:optimizeQuality; fill-rule:evenodd; clip-rule:evenodd"
viewBox="0 0 29700 42000"
 xmlns:xlink="http://www.w3.org/1999/xlink">
 <defs>
  <style type="text/css">
   <![CDATA[
    .fil0 {fill:white}
   ]]>
  </style>
 </defs>
 <g id="Layer_x0020_1">
  <metadata id="CorelCorpID_0Corel-Layer"/>
  <path class="fil0" d="M19199 23223l0 -3444c0,-123 -50,-234 -130,-314 -80,-80 -191,-130 -314,-130 -70,0 -136,16 -195,44 -63,31 -117,74 -157,125l-923 1180 15 -1511 -2 0c0,-123 -50,-234 -130,-314 -80,-80 -191,-130 -314,-130 -70,0 -136,16 -195,44 -63,31 -117,74 -157,125l-923 1180 15 -1511 -2 0c0,-123 -50,-234 -130,-314 -80,-80 -191,-130 -314,-130 -59,0 -113,10 -161,29 -52,20 -100,50 -140,88l-854 788 0 -3894c0,-173 -70,-330 -184,-444 -113,-113 -270,-184 -444,-184 -173,0 -330,70 -444,184 -114,114 -184,270 -184,444l0 6155 -1283 -1282 -2 0c-122,-122 -283,-184 -444,-184 -161,0 -321,61 -444,184 -122,122 -184,283 -184,444 0,161 61,321 184,444 725,908 2298,2299 3187,3187l11 9c115,115 250,207 397,268 143,59 302,92 472,92l3141 0c339,0 647,-138 869,-360 222,-222 360,-530 360,-869z"/>
  <g>
   <path class="fil0" d="M20683 15903l-2267 2267c-57,57 -109,116 -157,178 10,14 19,29 29,44 147,-50 304,-77 467,-77 404,0 770,164 1035,429 265,265 429,631 429,1035l0 2801 1694 1694 -721 721 721 721 4217 -4217c556,-556 834,-1290 834,-2024l2 0c0,-733 -279,-1467 -836,-2024l-1227 -1227 -2254 -2254 -663 -663 -721 721 646 650 -1227 1227 0 0zm-9350 2907l0 0 0 0zm0 0l0 0 0 0zm0 0l0 0 0 0zm0 0l0 0 0 0 -1 0zm1 0l0 0 0 0zm0 0l0 0 0 0zm0 0l0 0 0 0zm0 0l0 0 0 0 1 0 -2 0zm2 0l0 0 0 0zm0 0l0 0 0 0 0 0 0 0 0 0 0 0 1 0 -3 0zm3 0l0 0 0 0zm0 0l0 0 0 0zm0 0l0 0 0 0zm0 0l0 0 0 0zm0 0l0 0 0 0zm0 0l0 0 0 0zm0 0l0 0 0 0zm0 0l0 0 0 0zm0 0l0 0 0 0zm0 0l0 0 0 0zm0 0l0 0 0 0zm0 0l0 0 0 0zm0 0l1 0 0 0 0 0 -1 0zm1 0l0 0 0 0zm0 0l5 0 -1 0 0 0 -3 0 0 0 -1 0zm5 0l0 0 0 0zm0 0l1 0 -1 0zm1 0l0 0 0 0zm0 0l1 0 0 0 0 0zm1 0l0 0 0 0zm173 25l0 0 0 0zm0 0l0 0 0 0zm0 0l0 0 0 0 0 0zm4 1l1 0 0 0 0 0 0 0 0 0 0 0 0 0 0 0 0 0 0 0 0 0 0 0 0 0 0 0 0 0 0 0 -4 -1zm1 0l0 0 0 0 0 0 0 0 0 0 0 0 0 0 0 0 0 0 0 0 0 0 0 0 0 0 0 0 -3 -1zm3 1l0 0 0 0 0 0zm0 0l0 0 0 0zm3 1l0 0 0 0 0 0 0 0 0 0 0 0 -1 0 0 0 0 0zm1 0l0 0 0 0zm0 0l0 0 0 0zm0 0l0 0 0 0 0 0zm1 0l1 0 0 0 0 0 0 0 0 0 0 0zm2 0l0 0 0 0 0 0 0 0zm-13 -3l0 0 0 0zm-1 0l0 0 0 0 0 0zm0 0l0 0 0 0zm283 83l2 1 2 1 2 1 2 1 2 1 0 0 1 0 2 1 2 1 2 1 2 1 2 1 1 1 0 0 2 1 2 1 2 1 2 1 2 1 5 2 2 1 2 1 2 1 2 1 1 1 0 0 2 1 2 1 2 1 2 1 2 1 2 1 1 0 1 0 2 1 2 1 2 1 2 1 2 1 1 1 0 0 2 1 2 1 2 1 2 1 2 1 2 1 1 0 1 0 2 1 2 1 2 1 2 1 2 1 3 1 2 1 2 1 2 1 2 1 2 1 1 0 1 0 2 1 2 1 6 3 0 -3829c0,-455 184,-867 482,-1165 298,-298 710,-482 1165,-482 455,0 867,184 1165,482 298,298 482,710 482,1165l0 1976c45,-4 90,-6 136,-6 404,0 770,164 1035,429 77,77 145,162 203,254 147,-50 304,-77 467,-77 404,0 770,164 1035,429l3 3 1 1 2 2 1 1 2 2 2 2 1 1 6 6 0 0 3 3 0 0 3 3 1 1 2 2 2 2 1 1 2 2 1 1 3 3 0 0 3 3 0 0 3 3 1 1 2 2 1 1 2 2 2 2 1 1 2 3 0 0 3 3 0 0 3 3 1 1 2 2 1 1 2 2 2 2 1 1 2 3 1 1 3 3 0 0 3 3 1 1 2 3 1 1 2 2 2 2 1 1 2 2 1 1 3 3 0 0 3 3 0 0 2 3 1 1 2 2 1 2 1 2 2 2 1 1 2 3 0 0 3 3 0 0 2 3 1 1 2 2 1 2 1 2 2 2 1 1 2 3 0 1 3 3 0 0 3 3 1 1 2 3 1 1 1 2 2 2 1 1 2 3 1 1 3 3 0 0 3 3 0 1 2 3 1 1 2 2 1 2 1 2 2 3 1 1 2 3 0 0 2 3 0 0 2 3 1 1 2 2 1 2 1 2 2 2 1 1 2 3 0 0 2 4 0 0 2 3c48,-62 100,-122 157,-178l3494 -3494 -5718 -5718c-359,-359 -832,-539 -1303,-539l0 2c-473,0 -945,179 -1303,537l-5074 5074 -648 648 3496 3496c215,215 365,470 451,743zm8408 3660l0 643c0,621 -252,1183 -659,1590 -407,407 -969,659 -1590,659l-3141 0c-301,0 -591,-61 -858,-172 -279,-115 -527,-282 -732,-487l1 -1 -2955 -2954 -2422 2422 721 721 5001 5001c359,359 832,539 1303,539l0 -2c473,0 945,-179 1303,-537l5003 -5003 -4 -4 721 -721 -1694 -1694zm5476 -4040c-28,-48 -59,-94 -92,-140 34,47 65,95 94,143l-2 -4zm-101 -152c-6,-8 -12,-15 -17,-23 6,8 12,15 17,23zm-16035 2063c0,-421 161,-843 482,-1165 322,-322 743,-483 1165,-483 205,0 411,38 604,115 -86,-272 -236,-528 -451,-743l-3496 -3496 648 -648 -721 -721 -4144 4144c-557,557 -836,1291 -836,2024l2 0c0,735 278,1469 834,2024l4217 4217 721 -721 -721 -721 2422 -2422 -242 -242 -1 1c-322,-322 -482,-743 -482,-1165z"/>
  </g>
 </g>
</svg>
