<?xml version="1.0" encoding="UTF-8"?>
<!DOCTYPE svg PUBLIC "-//W3C//DTD SVG 1.1//EN" "http://www.w3.org/Graphics/SVG/1.1/DTD/svg11.dtd">
<!-- Creator: CorelDRAW 2017 -->
<svg xmlns="http://www.w3.org/2000/svg" xml:space="preserve" width="297mm" height="420mm" version="1.1" style="shape-rendering:geometricPrecision; text-rendering:geometricPrecision; image-rendering:optimizeQuality; fill-rule:evenodd; clip-rule:evenodd"
viewBox="0 0 29700 42000"
 xmlns:xlink="http://www.w3.org/1999/xlink">
 <defs>
  <style type="text/css">
   <![CDATA[
    .fil0 {fill:black}
    .fil1 {fill:black;fill-rule:nonzero}
   ]]>
  </style>
 </defs>
 <g id="Layer_x0020_1">
  <metadata id="CorelCorpID_0Corel-Layer"/>
  <path class="fil0" d="M18277 19621l0 -2681c0,-95 -39,-182 -101,-244 -62,-62 -149,-101 -244,-101 -55,0 -106,12 -151,34 -49,24 -91,57 -122,98l-718 919 11 -1177 -2 0c0,-95 -39,-182 -101,-244 -62,-62 -149,-101 -244,-101 -55,0 -106,12 -151,34 -49,24 -91,57 -122,98l-718 918 11 -1176 -2 0c0,-95 -39,-182 -101,-244 -62,-62 -149,-101 -244,-101 -46,0 -88,8 -126,23 -41,16 -78,39 -109,68l-665 613 0 -3031c0,-135 -55,-257 -143,-345 -88,-88 -210,-143 -345,-143 -135,0 -257,55 -345,143 -88,88 -143,211 -143,345l0 4792 -998 -998 -2 0c-95,-95 -220,-143 -345,-143 -125,0 -250,48 -345,143 -95,95 -143,220 -143,345 0,125 48,250 143,345 565,707 1789,1790 2481,2481l9 7c90,90 195,161 309,209 111,46 235,71 367,71l2445 0c264,0 503,-107 677,-280 173,-173 280,-412 280,-677z"/>
  <g>
   <path class="fil0" d="M10772 17464c0,-328 125,-656 376,-907 250,-250 579,-376 907,-376 160,0 320,30 471,89 -67,-212 -184,-411 -351,-578l-2722 -2722 505 -505 -561 -561 -3226 3226c-434,434 -651,1005 -651,1576l2 0c0,572 216,1143 649,1576l3283 3283 561 -561 -561 -561 1885 -1885 -189 -189 -1 1c-250,-250 -376,-579 -376,-907zm1381 -1278l0 0 0 0zm0 0l0 0 0 0zm0 0l0 0 0 0zm0 0l0 0 0 0 0 0zm0 0l0 0 0 0zm0 0l0 0 0 0zm0 0l0 0 0 0zm0 0l0 0 0 0 1 0 -1 0zm1 0l0 0 0 0zm0 0l0 0 0 0 0 0 0 0 0 0 0 0 1 0 -2 0zm2 0l0 0 0 0zm0 0l0 0 0 0zm0 0l0 0 0 0zm0 0l0 0 0 0zm0 0l0 0 0 0zm0 0l0 0 0 0zm0 0l0 0 0 0zm0 0l0 0 0 0zm0 0l0 0 0 0zm0 0l0 0 0 0zm0 0l0 0 0 0zm0 0l0 0 0 0zm0 0l1 0 0 0 0 0 0 0zm1 0l0 0 0 0zm0 0l4 0 0 0 0 0 -2 0 0 0 0 0zm4 0l0 0 0 0zm0 0l0 0 0 0zm0 0l0 0 0 0zm0 0l0 0 0 0 0 0zm0 0l0 0 0 0zm135 19l0 0 0 0zm0 0l0 0 0 0zm0 0l0 0 0 0 0 0zm3 1l1 0 0 0 0 0 0 0 0 0 0 0 0 0 0 0 0 0 0 0 0 0 0 0 0 0 0 0 0 0 0 0 -3 -1zm1 0l0 0 0 0 0 0 0 0 0 0 0 0 0 0 0 0 0 0 0 0 0 0 0 0 0 0 0 0 -2 0zm2 0l0 0 0 0 0 0zm0 0l0 0 0 0zm2 0l0 0 0 0 0 0 0 0 0 0 0 0 -1 0 0 0 0 0zm1 0l0 0 0 0zm0 0l0 0 0 0zm0 0l0 0 0 0 0 0zm0 0l1 0 0 0 0 0 0 0 0 0 0 0zm2 0l0 0 0 0 0 0 0 0zm-10 -2l0 0 0 0zm-1 0l0 0 0 0 0 0zm0 0l0 0 0 0zm220 65l1 1 1 1 1 1 1 1 1 1 0 0 1 0 1 1 1 1 1 1 1 1 1 1 1 0 0 0 1 1 1 1 1 1 1 1 1 1 4 2 1 1 1 1 1 1 1 1 1 0 0 0 1 1 1 1 1 1 1 1 1 1 1 1 0 0 1 0 1 1 1 1 1 1 1 1 1 1 1 1 0 0 1 1 1 1 1 1 1 1 1 1 1 1 1 0 1 0 1 1 1 1 1 1 1 1 1 1 3 1 1 1 1 1 1 1 1 1 1 1 1 0 1 0 1 1 1 1 5 2 0 -2981c0,-354 144,-675 376,-907 232,-232 553,-376 907,-376 354,0 675,144 907,376 232,232 376,553 376,907l0 1538c35,-3 70,-5 106,-5 315,0 599,128 806,334 60,60 113,126 158,197 115,-39 237,-60 364,-60 315,0 599,128 806,334l2 2 0 0 2 2 1 1 1 1 1 1 1 1 5 5 0 0 2 2 0 0 2 2 1 1 2 2 1 1 1 1 2 2 1 1 2 2 0 0 2 2 0 0 2 2 1 1 2 2 1 1 1 1 1 2 1 1 2 2 0 0 2 2 0 0 2 2 1 1 2 2 1 1 1 1 1 2 1 1 2 2 0 0 2 3 0 0 2 3 0 0 2 2 1 1 1 2 1 1 1 1 2 2 1 1 2 2 0 0 2 3 0 0 2 2 1 1 1 2 1 1 1 1 1 2 1 1 2 2 0 0 2 3 0 0 2 2 1 1 1 2 1 1 1 1 1 2 1 1 2 2 0 0 2 3 0 0 2 3 0 1 2 2 1 1 1 2 1 2 1 1 2 2 0 1 2 3 0 0 2 3 0 0 2 2 1 1 1 2 1 2 1 1 1 2 0 1 2 3 0 0 2 3 0 0 2 2 1 1 1 2 1 1 1 1 1 2 1 1 2 2 0 0 2 3 0 0 2 3c37,-48 78,-95 122,-139l2720 -2720 -4451 -4451c-280,-280 -647,-420 -1015,-420l0 2c-368,0 -736,139 -1015,418l-3950 3950 -505 505 2722 2722c167,167 284,366 351,578zm6546 2850l0 501c0,483 -196,921 -513,1238 -317,317 -754,513 -1238,513l-2445 0c-235,0 -460,-48 -668,-134 -217,-90 -410,-220 -570,-379l1 -1 -2301 -2300 -1885 1885 561 561 3893 3893c280,280 647,420 1015,420l0 -2c368,0 736,-139 1015,-418l3895 -3895 -3 -3 561 -561 -1318 -1319zm4263 -3145c-22,-37 -46,-73 -72,-109 26,36 51,74 73,112l-2 -3zm-78 -118c-4,-6 -9,-12 -14,-18 5,6 9,12 14,18zm-3823 -1935l-1765 1765c-44,44 -85,91 -122,139 8,11 15,22 22,34 115,-39 237,-60 364,-60 315,0 599,128 806,334 206,206 334,491 334,806l0 2180 1318 1319 -561 561 561 561 3283 -3283c433,-433 649,-1004 649,-1576l2 0c0,-571 -217,-1142 -651,-1576l-955 -955 -1755 -1755 -516 -516 -561 561 503 506 -955 955 0 0z"/>
  </g>
  <path class="fil1" d="M2407 31290l0 -891c108,94 214,164 318,212 104,47 210,71 315,71 145,0 260,-38 343,-114 83,-76 125,-181 125,-312 0,-162 -113,-339 -339,-529 -63,-52 -110,-93 -141,-123 -263,-235 -442,-445 -541,-633 -97,-187 -146,-398 -146,-635 0,-370 104,-669 313,-897 209,-228 481,-342 818,-342 119,0 237,17 353,51 117,34 240,87 369,159l0 758c-150,-73 -268,-123 -351,-151 -83,-27 -157,-41 -222,-41 -123,0 -225,39 -303,116 -78,77 -117,179 -117,304 0,110 29,213 88,308 59,95 197,236 412,422 288,247 473,452 556,616 82,163 123,361 123,592 0,390 -110,699 -331,925 -221,227 -521,340 -901,340 -145,0 -279,-17 -401,-50 -122,-33 -236,-84 -340,-153zm4155 -2733l235 1236c14,84 29,201 47,347 18,147 36,315 56,502 21,-176 42,-342 63,-498 20,-155 37,-275 51,-359l223 -1228 770 0 -758 2882 -687 0 -209 -1195c-10,-51 -24,-162 -43,-332 -18,-170 -38,-381 -60,-632l-14 140c-47,499 -75,774 -82,823l-212 1195 -685 0 -758 -2882 770 0 218 1228c5,37 30,217 73,540 15,132 29,239 41,317 14,-164 30,-320 48,-465 19,-146 39,-273 60,-381l227 -1239 626 0zm1687 -769c0,-131 44,-242 131,-331 87,-89 197,-133 328,-133 125,0 233,45 322,135 89,90 133,200 133,329 0,125 -44,232 -132,319 -88,87 -196,131 -323,131 -131,0 -241,-43 -328,-128 -87,-85 -131,-193 -131,-322zm60 3651l0 -2882 794 0 0 2882 -794 0zm2526 -2262c-123,0 -214,61 -270,183 -57,121 -85,319 -85,593 0,300 27,513 80,641 54,127 141,191 263,191 117,0 204,-68 260,-205 55,-135 83,-349 83,-639 0,-268 -26,-462 -79,-583 -53,-120 -136,-181 -252,-181zm-1119 3423l0 -4043 746 0 0 440c92,-160 191,-279 297,-356 105,-76 222,-114 346,-114 273,0 482,128 629,385 147,257 221,624 221,1101 0,474 -72,841 -218,1101 -144,261 -348,391 -611,391 -138,0 -263,-41 -373,-124 -109,-83 -201,-205 -273,-363l0 1582 -764 0zm4189 -2846c-6,-211 -43,-366 -113,-467 -69,-101 -173,-152 -312,-152 -137,0 -242,53 -315,159 -72,106 -108,261 -108,463l848 -3zm-848 457l0 23c0,216 38,380 114,495 76,115 186,173 326,173 90,0 166,-27 231,-82 63,-54 115,-137 154,-249l685 0c-62,288 -193,513 -389,677 -198,162 -438,244 -725,244 -358,0 -643,-134 -854,-403 -212,-269 -318,-631 -318,-1088 0,-462 105,-827 317,-1096 212,-269 496,-403 854,-403 380,0 667,132 860,397 194,265 291,656 291,1174l0 137 -1546 0zm2829 -1203c10,0 25,1 45,3 21,2 36,3 46,3 183,0 321,-52 416,-157 95,-104 142,-255 142,-450 0,-204 -45,-354 -135,-450 -90,-97 -231,-145 -423,-145 -10,0 -25,1 -46,3 -20,2 -35,3 -45,3l0 1191zm-830 2431l0 -4290 892 0c471,0 821,102 1051,307 229,205 343,517 343,939 0,402 -110,714 -332,936 -221,223 -531,334 -931,334 -50,0 -89,-1 -115,-2 -27,-1 -52,-2 -75,-4l-3 1781 -830 0zm2653 -3651c0,-131 44,-242 131,-331 87,-89 197,-133 328,-133 125,0 233,45 322,135 89,90 133,200 133,329 0,125 -44,232 -132,319 -88,87 -196,131 -323,131 -131,0 -241,-43 -328,-128 -87,-85 -131,-193 -131,-322zm60 3651l0 -2882 794 0 0 2882 -794 0zm2911 -2064c-63,-46 -123,-79 -183,-100 -59,-21 -118,-32 -176,-32 -153,0 -276,66 -366,199 -90,131 -135,311 -135,535 0,237 46,419 137,548 91,128 221,193 387,193 63,0 121,-12 176,-37 55,-24 108,-62 159,-113l0 759c-82,57 -169,99 -260,126 -91,27 -187,41 -287,41 -337,0 -605,-134 -804,-403 -199,-269 -298,-634 -298,-1096 0,-457 100,-819 300,-1088 200,-269 467,-403 802,-403 96,0 189,9 279,28 90,19 180,46 268,84l0 760zm1196 366c20,-53 64,-151 132,-294 16,-32 27,-55 35,-71l409 -819 897 0 -721 1198 775 1684 -883 0 -645 -1571 0 1571 -794 0 0 -4555 794 0 0 2857zm3090 13c-6,-211 -43,-366 -113,-467 -69,-101 -173,-152 -312,-152 -137,0 -242,53 -315,159 -72,106 -108,261 -108,463l848 -3zm-848 457l0 23c0,216 38,380 114,495 76,115 186,173 326,173 90,0 166,-27 231,-82 63,-54 115,-137 154,-249l685 0c-62,288 -193,513 -389,677 -198,162 -438,244 -725,244 -358,0 -643,-134 -854,-403 -212,-269 -318,-631 -318,-1088 0,-462 105,-827 317,-1096 212,-269 496,-403 854,-403 380,0 667,132 860,397 194,265 291,656 291,1174l0 137 -1546 0zm1956 1227l0 -2882 740 0 0 510c65,-189 151,-329 259,-422 108,-93 239,-140 391,-142l0 758 -53 0c-211,0 -353,49 -429,148 -75,99 -113,324 -113,675l0 1355 -794 0z"/>
 </g>
</svg>
