<?xml version="1.0" encoding="UTF-8"?>
<!DOCTYPE svg PUBLIC "-//W3C//DTD SVG 1.1//EN" "http://www.w3.org/Graphics/SVG/1.1/DTD/svg11.dtd">
<!-- Creator: CorelDRAW 2017 -->
<svg xmlns="http://www.w3.org/2000/svg" xml:space="preserve" width="420mm" height="297mm" version="1.1" style="shape-rendering:geometricPrecision; text-rendering:geometricPrecision; image-rendering:optimizeQuality; fill-rule:evenodd; clip-rule:evenodd"
viewBox="0 0 42000 29700"
 xmlns:xlink="http://www.w3.org/1999/xlink">
 <defs>
  <style type="text/css">
   <![CDATA[
    .fil1 {fill:#05396B}
    .fil0 {fill:#5CDB94}
    .fil2 {fill:#05396B;fill-rule:nonzero}
   ]]>
  </style>
 </defs>
 <g id="Layer_x0020_1">
  <metadata id="CorelCorpID_0Corel-Layer"/>
  <path class="fil0" d="M11218 16763l0 -1459c0,-52 -21,-99 -55,-133 -34,-34 -81,-55 -133,-55 -30,0 -58,7 -82,19 -27,13 -49,31 -66,53l-391 500 6 -640 -1 0c0,-52 -21,-99 -55,-133 -34,-34 -81,-55 -133,-55 -30,0 -58,7 -82,19 -27,13 -49,31 -66,53l-391 500 6 -640 -1 0c0,-52 -21,-99 -55,-133 -34,-34 -81,-55 -133,-55 -25,0 -48,4 -68,12 -22,9 -42,21 -59,37l-362 334 0 -1649c0,-73 -30,-140 -78,-188 -48,-48 -115,-78 -188,-78 -73,0 -140,30 -188,78 -48,48 -78,115 -78,188l0 2608 -543 -543 -1 0c-52,-52 -120,-78 -188,-78 -68,0 -136,26 -188,78 -52,52 -78,120 -78,188 0,68 26,136 78,188 307,385 973,974 1350,1350l5 4c49,49 106,88 168,114 61,25 128,39 200,39l1331 0c144,0 274,-58 368,-152 94,-94 152,-224 152,-368z"/>
  <g>
   <path class="fil1" d="M7886 14894l0 0 0 0zm0 0l0 0 0 0zm0 0l0 0 0 0zm0 0l0 0 0 0 0 0zm0 0l0 0 0 0zm0 0l0 0 0 0zm0 0l0 0 0 0zm0 0l0 0 0 0 1 0 -1 0zm1 0l0 0 0 0zm0 0l0 0 0 0 0 0 0 0 0 0 0 0 1 0 -1 0zm1 0l0 0 0 0zm0 0l0 0 0 0zm0 0l0 0 0 0zm0 0l0 0 0 0zm0 0l0 0 0 0zm0 0l0 0 0 0zm0 0l0 0 0 0zm0 0l0 0 0 0zm0 0l0 0 0 0zm0 0l0 0 0 0zm0 0l0 0 0 0zm0 0l0 0 0 0zm0 0l1 0 0 0 0 0 0 0zm1 0l0 0 0 0zm0 0l2 0 0 0 0 0 -1 0 0 0 0 0zm2 0l0 0 0 0zm0 0l0 0 0 0zm0 0l0 0 0 0zm0 0l0 0 0 0 0 0zm0 0l0 0 0 0zm73 10l0 0 0 0zm0 0l0 0 0 0zm0 0l0 0 0 0 0 0zm2 0l1 0 0 0 0 0 0 0 0 0 0 0 0 0 0 0 0 0 0 0 0 0 0 0 0 0 0 0 0 0 0 0 -2 0zm1 0l0 0 0 0 0 0 0 0 0 0 0 0 0 0 0 0 0 0 0 0 0 0 0 0 0 0 0 0 -1 0zm1 0l0 0 0 0 0 0zm0 0l0 0 0 0zm1 0l0 0 0 0 0 0 0 0 0 0 0 0 -1 0 0 0 0 0zm1 0l0 0 0 0zm0 0l0 0 0 0zm0 0l0 0 0 0 0 0zm0 0l0 0 0 0 0 0 0 0 0 0 0 0zm1 0l0 0 0 0 0 0 0 0zm-5 -1l0 0 0 0zm-1 0l0 0 0 0 0 0zm0 0l0 0 0 0zm120 35l1 0 1 0 1 0 1 0 1 0 0 0 1 0 1 0 1 0 1 0 1 0 1 0 1 0 0 0 1 0 1 0 1 0 1 0 1 0 2 1 1 0 1 0 1 0 1 0 1 0 0 0 1 0 1 0 1 0 1 0 1 0 1 0 0 0 0 0 1 0 1 0 1 0 1 0 1 0 1 0 0 0 1 0 1 0 1 0 1 0 1 0 1 0 0 0 0 0 1 0 1 0 1 0 1 0 1 0 1 1 1 0 1 0 1 0 1 0 1 0 0 0 0 0 1 0 1 0 3 1 0 -1622c0,-193 78,-367 204,-493 126,-126 301,-204 493,-204 193,0 367,78 493,204 126,126 204,301 204,493l0 837c19,-2 38,-3 58,-3 171,0 326,69 438,182 32,32 61,68 86,107 62,-21 129,-32 198,-32 171,0 326,69 438,182l1 1 0 0 1 1 0 1 1 1 1 1 1 1 2 3 0 0 1 1 0 0 1 1 0 0 1 1 1 1 1 1 1 1 0 0 1 1 0 0 1 1 0 0 1 1 0 0 1 1 1 1 1 1 1 1 0 0 1 1 0 0 1 1 0 0 1 1 0 0 1 1 1 1 1 1 1 1 0 1 1 1 0 0 1 1 0 0 1 1 0 0 1 1 0 1 1 1 1 1 1 1 1 1 0 0 1 1 0 0 1 1 0 0 1 1 0 0 1 1 1 1 1 1 1 1 0 0 1 1 0 0 1 1 0 0 1 1 0 0 1 1 1 1 1 1 1 1 0 0 1 1 0 0 1 1 0 0 1 1 0 0 1 1 0 1 1 1 1 1 0 1 1 1 0 0 1 1 0 0 1 1 0 0 1 1 0 1 1 1 1 1 0 1 1 1 0 0 1 1 0 0 1 1 0 0 1 1 0 0 1 1 1 1 1 1 1 1 0 0 1 1 0 0 1 2 0 0 1 1c20,-26 42,-52 66,-76l1480 -1480 -2422 -2422c-152,-152 -352,-228 -552,-228l0 1c-200,0 -400,76 -552,227l-2150 2150 -275 275 1481 1481c91,91 155,199 191,315zm3562 1551l0 273c0,263 -107,501 -279,674 -172,172 -411,279 -674,279l-1331 0c-128,0 -251,-26 -364,-73 -118,-49 -223,-119 -310,-206l0 0 -1252 -1251 -1026 1026 305 305 2119 2119c152,152 352,228 552,228l0 -1c200,0 400,-76 552,-227l2120 -2120 -2 -2 305 -305 -717 -717zm2320 -1711c-12,-20 -25,-40 -39,-59 14,20 28,40 40,61l-1 -2zm-43 -64c-2,-3 -5,-7 -7,-10 2,3 5,7 7,10z"/>
  </g>
  <path class="fil0" d="M7135 15589c0,-179 68,-357 204,-493 136,-136 315,-204 493,-204 87,0 174,16 256,49 -36,-115 -100,-224 -191,-315l-1481 -1481 275 -275 -305 -305 -1756 1756c-236,236 -354,547 -354,858l1 0c0,311 118,622 353,858l1787 1787 305 -305 -305 -305 1026 -1026 -103 -103 0 0c-136,-136 -204,-315 -204,-493z"/>
  <path class="fil0" d="M11847 13662l-960 960c-24,24 -46,49 -66,76 4,6 8,12 12,18 62,-21 129,-32 198,-32 171,0 326,69 438,182 112,112 182,267 182,438l0 1186 717 717 -305 305 305 305 1787 -1787c235,-235 353,-546 353,-858l1 0c0,-311 -118,-622 -354,-858l-520 -520 -955 -955 -281 -281 -305 305 274 275 -520 520 0 0z"/>
  <path class="fil2" d="M16233 16440l0 -728c88,77 174,134 259,173 85,38 171,58 257,58 119,0 212,-31 280,-93 68,-62 102,-147 102,-255 0,-133 -92,-277 -277,-432 -52,-43 -90,-76 -115,-101 -214,-192 -361,-363 -441,-516 -79,-152 -120,-325 -120,-518 0,-302 85,-546 255,-733 170,-186 393,-279 668,-279 97,0 193,14 288,42 96,28 196,71 301,130l0 619c-123,-60 -219,-101 -286,-124 -68,-22 -129,-34 -181,-34 -101,0 -183,32 -247,95 -64,63 -96,146 -96,248 0,90 24,174 72,251 48,78 160,192 336,345 235,201 386,369 453,503 67,133 101,295 101,483 0,318 -90,571 -270,755 -180,185 -426,277 -736,277 -119,0 -228,-14 -327,-41 -100,-27 -192,-69 -277,-125zm3392 -2230l192 1009c11,69 24,164 38,283 15,120 29,257 46,410 17,-144 34,-279 52,-407 16,-127 30,-224 42,-293l182 -1003 629 0 -619 2352 -561 0 -170 -976c-8,-42 -20,-133 -35,-271 -15,-139 -31,-311 -49,-516l-11 115c-38,408 -61,632 -67,672l-173 976 -559 0 -619 -2352 629 0 178 1003c4,30 25,177 60,441 12,108 24,195 34,259 11,-134 25,-261 39,-380 16,-120 32,-223 49,-311l185 -1012 511 0zm1377 -628c0,-107 36,-197 107,-270 71,-73 160,-109 268,-109 102,0 190,37 263,111 73,74 109,163 109,268 0,102 -36,189 -108,260 -72,71 -160,107 -264,107 -107,0 -196,-35 -268,-105 -71,-70 -107,-157 -107,-263zm49 2980l0 -2352 648 0 0 2352 -648 0zm2062 -1847c-101,0 -174,50 -220,149 -47,99 -70,260 -70,484 0,245 22,419 65,523 44,104 115,156 214,156 96,0 166,-56 212,-167 45,-111 68,-285 68,-521 0,-219 -21,-377 -65,-476 -43,-98 -111,-147 -205,-147zm-913 2794l0 -3300 609 0 0 359c75,-131 156,-228 242,-291 86,-62 181,-93 282,-93 223,0 394,105 513,314 120,210 180,509 180,899 0,387 -59,687 -178,899 -118,213 -284,319 -498,319 -113,0 -214,-34 -305,-101 -89,-68 -164,-167 -223,-296l0 1292 -624 0zm3419 -2323c-5,-172 -35,-299 -92,-381 -56,-83 -142,-124 -255,-124 -112,0 -197,43 -257,130 -59,87 -88,213 -88,378l692 -2zm-692 373l0 19c0,176 31,310 93,404 62,94 151,142 266,142 74,0 136,-22 188,-67 52,-44 94,-112 126,-203l559 0c-51,235 -157,419 -318,553 -161,133 -358,199 -592,199 -292,0 -525,-110 -697,-329 -173,-219 -259,-515 -259,-888 0,-377 86,-675 259,-895 173,-219 405,-329 697,-329 310,0 544,108 702,324 158,216 237,535 237,958l0 112 -1262 0zm2309 -982c8,0 20,1 37,2 17,2 29,2 38,2 149,0 262,-43 340,-129 78,-85 116,-208 116,-368 0,-166 -37,-289 -111,-368 -74,-79 -188,-119 -345,-119 -8,0 -20,1 -38,2 -16,2 -29,2 -37,2l0 972zm-678 1984l0 -3502 728 0c385,0 670,83 858,250 187,167 280,422 280,766 0,328 -90,583 -271,764 -180,182 -434,273 -760,273 -41,0 -73,-1 -94,-2 -22,-1 -43,-2 -61,-3l-2 1454 -678 0zm2166 -2980c0,-107 36,-197 107,-270 71,-73 160,-109 268,-109 102,0 190,37 263,111 73,74 109,163 109,268 0,102 -36,189 -108,260 -72,71 -160,107 -264,107 -107,0 -196,-35 -268,-105 -71,-70 -107,-157 -107,-263zm49 2980l0 -2352 648 0 0 2352 -648 0zm2376 -1685c-52,-38 -101,-65 -149,-82 -48,-17 -97,-26 -144,-26 -125,0 -225,54 -299,162 -74,107 -111,254 -111,437 0,193 38,342 112,447 74,105 180,157 316,157 52,0 99,-10 144,-30 45,-20 88,-51 130,-92l0 620c-67,47 -138,81 -212,103 -74,22 -152,34 -234,34 -275,0 -494,-110 -656,-329 -162,-219 -243,-517 -243,-895 0,-373 82,-669 245,-888 163,-219 381,-329 655,-329 79,0 154,7 228,23 74,16 147,38 219,69l0 620zm976 299c16,-43 52,-124 108,-240 13,-26 22,-45 29,-58l334 -669 733 0 -589 978 633 1374 -721 0 -526 -1283 0 1283 -648 0 0 -3718 648 0 0 2332zm2522 11c-5,-172 -35,-299 -92,-381 -56,-83 -142,-124 -255,-124 -112,0 -197,43 -257,130 -59,87 -88,213 -88,378l692 -2zm-692 373l0 19c0,176 31,310 93,404 62,94 151,142 266,142 74,0 136,-22 188,-67 52,-44 94,-112 126,-203l559 0c-51,235 -157,419 -318,553 -161,133 -358,199 -592,199 -292,0 -525,-110 -697,-329 -173,-219 -259,-515 -259,-888 0,-377 86,-675 259,-895 173,-219 405,-329 697,-329 310,0 544,108 702,324 158,216 237,535 237,958l0 112 -1262 0zm1597 1002l0 -2352 604 0 0 417c53,-154 124,-268 211,-345 88,-76 195,-115 319,-116l0 619 -43 0c-172,0 -288,40 -350,121 -61,81 -92,264 -92,551l0 1106 -648 0z"/>
 </g>
</svg>
